PathFileType	4	(X/Y/Z)	Walk8.trc
DataRate	CameraRate	NumFrames	NumMarkers	Units	OrigDataRate	OrigDataStartFrame	OrigNumFrames
200.000000	200.000000	6	59	mm	200.000000	997	1039
Frame#	Times		RFA1		LFHD		RFHD		RCAR		RWRR		RACR1		LMT1		RUA1		LTH3		LTB1		LLFC		LACR1		LTB2		LToe		LASI		LTB3		LElbow		LUA1		RASI		RLFC		CLAV		STRN		RTH3		LWRU		LFA1		RBack		RMT5		RMT1		LCAR		RCAL		LTH4		RTB2		RToe		RLMAL		LTH1		LBHD		LPSI		RPSI		RTH1		RTB1		RTH2		RTB4		RTB3		LTB4		C7		RElbowM		RBHD		LMT5		RElbow		RMMAL		LWRR		RTH4		LTH2		LLMAL		LMMAL		T10		RWRU		LCAL		LElbowM
			X1	Y1	Z1	X2	Y2	Z2	X3	Y3	Z3	X4	Y4	Z4	X5	Y5	Z5	X6	Y6	Z6	X7	Y7	Z7	X8	Y8	Z8	X9	Y9	Z9	X10	Y10	Z10	X11	Y11	Z11	X12	Y12	Z12	X13	Y13	Z13	X14	Y14	Z14	X15	Y15	Z15	X16	Y16	Z16	X17	Y17	Z17	X18	Y18	Z18	X19	Y19	Z19	X20	Y20	Z20	X21	Y21	Z21	X22	Y22	Z22	X23	Y23	Z23	X24	Y24	Z24	X25	Y25	Z25	X26	Y26	Z26	X27	Y27	Z27	X28	Y28	Z28	X29	Y29	Z29	X30	Y30	Z30	X31	Y31	Z31	X32	Y32	Z32	X33	Y33	Z33	X34	Y34	Z34	X35	Y35	Z35	X36	Y36	Z36	X37	Y37	Z37	X38	Y38	Z38	X39	Y39	Z39	X40	Y40	Z40	X41	Y41	Z41	X42	Y42	Z42	X43	Y43	Z43	X44	Y44	Z44	X45	Y45	Z45	X46	Y46	Z46	X47	Y47	Z47	X48	Y48	Z48	X49	Y49	Z49	X50	Y50	Z50	X51	Y51	Z51	X52	Y52	Z52	X53	Y53	Z53	X54	Y54	Z54	X55	Y55	Z55	X56	Y56	Z56	X57	Y57	Z57	X58	Y58	Z58	X59	Y59	Z59

997	4.985	536.41	952.19	306.97	752.31	1569.3	-46.489	748.76	1568.7	51.616	529.95	787.59	317.35	505.5	850.76	339.72	589.86	1386.8	170.7	678.03	36.092	-14.161	538.03	1249.7	261.45	622.94	560.15	-143.9	602.3	336.87	-27.003	588.96	488.6	-133.44	627.24	1356.3	-187.02	597.09	255.25	-95.291	721.59	31.334	-14.812	696.51	959.47	-162.14	586.61	166.08	-35.645	583.66	1063.6	-301.31	625.37	1207.6	-260.95	669.99	971.88	194.36	671.62	482.96	228.07	681.23	1344.6	-2.774	745.58	1229.5	14.105	660.55	569.52	232.55	631.93	825.2	-353.73	645.79	943	-320	457.09	1322.8	85.209	592.09	47.543	219.85	626.09	49.232	140.77	675.53	783.99	-349.97	448.27	110.49	133.32	638.59	642.49	-170.48	622.17	304.36	214.73	661.88	37.717	159.95	499.77	128.59	190.79	658.5	720.95	-197.67	600.82	1571	-79.188	455.87	986.23	-98.256	432.18	984.65	34.645	634.75	738.52	252.7	697.6	359.33	163.48	700.89	666.93	231.21	645.32	290.13	158.41	603.42	216.58	155.6	590.91	252.2	-33.1	522.46	1421.4	-7.3831	453.61	1075.7	208.2	578.86	1583.7	54.047	663.02	26.29	-105.49	486.83	1087.9	294.74	539.72	128.21	114.62	671.54	824.5	-290.85	642.64	654.64	240.24	687.47	642.89	-135.54	544.96	69.649	-97.643	552.53	73.844	-14.709	468.08	1089.9	-12.574	541.81	838.6	264.88	487.96	30.861	-60.335	555.83	1027.7	-202.97
998	4.99	539.35	952.05	306.56	756.61	1569	-46.666	752.93	1568.4	51.435	532.44	787.51	317.07	508.12	850.72	339.28	594	1386.5	170.29	678.05	36.11	-14.21	541.75	1249.6	261	625.07	559.88	-143.68	602.85	336.77	-26.95	590.29	488.55	-133.5	632.03	1355.9	-187.18	597.63	255.21	-95.326	721.7	31.285	-14.892	700.24	958.84	-162.41	586.88	166.01	-35.686	590.27	1063.3	-302.04	630.71	1207.4	-261.31	674.05	971.89	194.36	678.55	482.9	227.38	685.44	1344.1	-2.9399	749.68	1228.8	14.598	666.92	569.66	232.06	642.1	825.53	-353.98	654.09	943.44	-320.09	461.24	1322.7	84.589	609.01	46.28	220.57	643.09	48.449	141.63	686.27	784.99	-349.88	463.6	104.72	133.47	641.58	642.08	-170.15	632.78	303.26	214.43	679.18	38.005	160.87	514.56	124.43	190.94	662.31	720.36	-197.22	605.16	1570.6	-79.572	459.68	985.97	-98.343	436.1	984.53	34.559	640.05	738.47	252.33	706.78	359.87	162.9	706.59	667.35	230.58	656.22	289.47	158.05	616.1	214.92	155.47	591.38	252.1	-33.114	526.68	1421.2	-7.9607	457.02	1075.8	207.6	583	1583.3	53.636	663.03	26.281	-105.55	490.13	1087.9	294.2	554.67	124.83	114.84	681.15	825.38	-290.8	648.45	654.69	239.84	690.13	642.17	-134.75	545.01	69.688	-97.619	552.62	73.858	-14.723	472.02	1089.7	-12.952	545.07	837.22	262.41	487.99	30.89	-60.27	562.01	1027.1	-203.92
999	4.995	542.32	951.88	306.22	760.9	1568.7	-46.818	757.1	1568	51.279	535.02	787.42	316.86	510.79	850.65	338.88	598.14	1386.2	169.92	678.07	36.129	-14.257	545.5	1249.4	260.56	627.24	559.62	-143.45	603.49	336.66	-26.896	591.71	488.49	-133.52	636.83	1355.6	-187.3	598.21	255.15	-95.35	721.82	31.238	-14.969	703.98	958.25	-162.67	587.2	165.94	-35.729	596.83	1062.9	-302.75	636.07	1207.2	-261.64	678.14	971.89	194.35	685.35	482.77	226.64	689.66	1343.6	-3.0671	753.76	1228.2	15.117	673.17	569.72	231.53	652.26	825.92	-354.17	662.34	943.91	-320.16	465.39	1322.6	83.993	626.08	45.107	221.34	660.22	47.77	142.53	696.97	786.04	-349.71	479.19	98.999	133.7	644.56	641.66	-169.83	643.42	302.16	214.11	696.56	38.409	161.85	529.57	120.31	191.17	666.04	719.77	-196.78	609.51	1570.3	-79.924	463.48	985.71	-98.37	440	984.37	34.52	645.31	738.37	251.96	715.89	360.4	162.26	712.22	667.69	229.93	667.13	288.83	157.67	628.88	213.28	155.34	591.91	251.99	-33.121	530.93	1420.9	-8.5107	460.45	1075.8	207.06	587.15	1582.8	53.256	663.04	26.272	-105.61	493.46	1087.8	293.7	569.81	121.49	115.13	690.73	826.31	-290.7	654.19	654.68	239.42	692.8	641.48	-134.03	545.08	69.734	-97.599	552.71	73.873	-14.734	475.93	1089.5	-13.293	548.38	835.84	259.83	488.03	30.923	-60.204	568.2	1026.4	-204.85
1000	5	545.32	951.7	305.93	765.21	1568.4	-46.942	761.28	1567.7	51.151	537.68	787.32	316.71	513.53	850.56	338.52	602.27	1385.9	169.59	678.09	36.148	-14.302	549.27	1249.2	260.15	629.44	559.38	-143.23	604.22	336.53	-26.843	593.24	488.42	-133.51	641.63	1355.2	-187.4	598.85	255.08	-95.366	721.94	31.193	-15.043	707.72	957.68	-162.91	587.56	165.87	-35.774	603.37	1062.6	-303.43	641.46	1206.9	-261.96	682.27	971.89	194.33	692.01	482.58	225.86	693.87	1343.1	-3.1566	757.82	1227.5	15.66	679.31	569.73	230.97	662.39	826.36	-354.32	670.56	944.41	-320.22	469.53	1322.4	83.425	643.28	44.043	222.15	677.48	47.214	143.46	707.61	787.15	-349.49	495.04	93.351	134.02	647.51	641.27	-169.54	654.1	301.07	213.76	714.03	38.951	162.87	544.8	116.24	191.47	669.68	719.2	-196.37	613.86	1569.9	-80.245	467.26	985.43	-98.331	443.88	984.17	34.532	650.52	738.21	251.61	724.92	360.95	161.57	717.76	667.96	229.26	678.05	288.21	157.27	641.73	211.69	155.22	592.5	251.87	-33.121	535.2	1420.6	-9.0278	463.89	1075.8	206.56	591.3	1582.4	52.906	663.05	26.263	-105.67	496.82	1087.7	293.24	585.12	118.21	115.47	700.27	827.3	-290.56	659.86	654.62	239	695.47	640.8	-133.39	545.16	69.786	-97.582	552.81	73.891	-14.744	479.84	1089.3	-13.593	551.73	834.52	257.19	488.08	30.963	-60.139	574.4	1025.7	-205.74
1001	5.005	548.37	951.49	305.7	769.51	1568	-47.04	765.46	1567.3	51.05	540.43	787.21	316.62	516.33	850.44	338.21	606.39	1385.6	169.29	678.12	36.168	-14.345	553.05	1248.9	259.76	631.68	559.14	-143.02	605.04	336.39	-26.796	594.88	488.36	-133.48	646.44	1354.7	-187.47	599.54	255	-95.374	722.06	31.149	-15.112	711.46	957.16	-163.13	587.97	165.8	-35.822	609.86	1062.2	-304.08	646.87	1206.7	-262.25	686.44	971.86	194.28	698.53	482.33	225.03	698.08	1342.6	-3.21	761.86	1226.8	16.219	685.32	569.68	230.36	672.48	826.86	-354.41	678.73	944.94	-320.26	473.67	1322.3	82.891	660.61	43.105	222.98	694.85	46.8	144.4	718.2	788.3	-349.2	511.13	87.805	134.43	650.43	640.89	-169.26	664.81	299.99	213.38	731.57	39.648	163.9	560.23	112.26	191.84	673.24	718.65	-196	618.2	1569.4	-80.532	471.03	985.14	-98.225	447.74	983.93	34.599	655.68	738.01	251.26	733.88	361.51	160.83	723.23	668.15	228.58	688.96	287.62	156.85	654.66	210.17	155.11	593.14	251.74	-33.116	539.48	1420.3	-9.5076	467.35	1075.7	206.11	595.46	1581.9	52.588	663.07	26.254	-105.74	500.2	1087.6	292.83	600.6	115.03	115.86	709.78	828.35	-290.37	665.44	654.5	238.58	698.14	640.16	-132.84	545.25	69.845	-97.571	552.93	73.914	-14.754	483.74	1089.1	-13.85	555.1	833.32	254.56	488.13	31.01	-60.076	580.59	1025.1	-206.6
1002	5.01	551.46	951.26	305.52	773.83	1567.6	-47.112	769.65	1566.9	50.979	543.26	787.09	316.58	519.19	850.3	337.93	610.51	1385.2	169.04	678.14	36.189	-14.386	556.86	1248.6	259.4	633.95	558.92	-142.83	605.96	336.24	-26.759	596.6	488.29	-133.42	651.24	1354.3	-187.5	600.27	254.91	-95.378	722.18	31.106	-15.179	715.22	956.68	-163.34	588.41	165.73	-35.871	616.33	1061.9	-304.7	652.31	1206.4	-262.53	690.64	971.81	194.22	704.89	482.03	224.16	702.3	1342.1	-3.2291	765.89	1226.1	16.79	691.21	569.59	229.72	682.53	827.4	-354.45	686.85	945.49	-320.3	477.8	1322.1	82.395	678.06	42.311	223.82	712.31	46.547	145.33	728.73	789.49	-348.85	527.45	82.392	134.94	653.33	640.53	-169.02	675.53	298.96	212.98	749.17	40.522	164.91	575.87	108.39	192.29	676.71	718.13	-195.66	622.55	1569	-80.787	474.79	984.84	-98.048	451.59	983.65	34.722	660.79	737.77	250.94	742.74	362.09	160.04	728.61	668.27	227.88	699.86	287.08	156.41	667.65	208.72	155.02	593.84	251.61	-33.109	543.79	1420	-9.9457	470.83	1075.6	205.72	599.63	1581.4	52.302	663.09	26.242	-105.8	503.62	1087.4	292.46	616.23	111.97	116.3	719.25	829.44	-290.13	670.94	654.33	238.15	700.84	639.55	-132.38	545.35	69.912	-97.566	553.05	73.943	-14.763	487.62	1088.9	-14.06	558.49	832.28	252.01	488.17	31.066	-60.016	586.8	1024.4	-207.43
